<?xml version="1.0" encoding="UTF-8"?>
<svg xmlns="http://www.w3.org/2000/svg" xmlns:xlink="http://www.w3.org/1999/xlink" width="94px" height="150px" viewBox="0 0 94 150" version="1.1">
<g id="surface1">
<path style=" stroke:none;fill-rule:nonzero;fill:rgb(100%,41.568628%,61.56863%);fill-opacity:1;" d="M 0 136.851562 L 46.609375 11.503906 L 94.136719 136.390625 C 62.757812 152.589844 31.378906 156.21875 0 136.851562 Z M 0 136.851562 "/>
<path style=" stroke:none;fill-rule:nonzero;fill:rgb(100%,98.823529%,76.078433%);fill-opacity:1;" d="M 58.636719 74.96875 C 58.292969 75.316406 50.289062 70.621094 49.804688 70.699219 C 49.320312 70.777344 43.164062 77.707031 42.726562 77.484375 C 42.289062 77.261719 44.285156 68.214844 44.0625 67.777344 C 43.839844 67.339844 35.335938 63.636719 35.410156 63.152344 C 35.488281 62.667969 44.722656 61.765625 45.070312 61.421875 C 45.417969 61.074219 46.320312 51.851562 46.804688 51.773438 C 47.289062 51.699219 51 60.191406 51.4375 60.414062 C 51.875 60.636719 60.9375 58.640625 61.160156 59.078125 C 61.382812 59.515625 54.4375 65.664062 54.363281 66.148438 C 54.285156 66.632812 58.984375 74.621094 58.636719 74.96875 Z M 58.636719 74.96875 "/>
<path style=" stroke:none;fill-rule:nonzero;fill:rgb(76.078433%,94.117647%,100%);fill-opacity:1;" d="M 26.933594 122.480469 C 26.671875 122.601562 23.152344 118.382812 22.867188 118.328125 C 22.582031 118.273438 17.753906 120.902344 17.554688 120.691406 C 17.355469 120.480469 20.289062 115.835938 20.253906 115.546875 C 20.21875 115.257812 16.21875 111.488281 16.359375 111.230469 C 16.5 110.976562 21.832031 112.328125 22.09375 112.203125 C 22.355469 112.082031 24.714844 107.121094 25 107.175781 C 25.285156 107.226562 25.644531 112.707031 25.84375 112.921875 C 26.042969 113.132812 31.496094 113.835938 31.535156 114.125 C 31.570312 114.414062 26.464844 116.449219 26.324219 116.703125 C 26.183594 116.957031 27.195312 122.355469 26.933594 122.480469 Z M 26.933594 122.480469 "/>
<path style=" stroke:none;fill-rule:nonzero;fill:rgb(100%,98.823529%,76.078433%);fill-opacity:1;" d="M 46.976562 129.347656 C 46.527344 129.28125 45.652344 120.71875 45.328125 120.398438 C 45.003906 120.078125 36.421875 119.28125 36.347656 118.832031 C 36.273438 118.382812 44.160156 114.90625 44.363281 114.5 C 44.570312 114.09375 42.675781 105.695312 43.082031 105.488281 C 43.484375 105.277344 49.234375 111.691406 49.683594 111.761719 C 50.136719 111.828125 57.546875 107.4375 57.871094 107.757812 C 58.195312 108.078125 53.863281 115.519531 53.9375 115.96875 C 54.007812 116.417969 60.484375 122.097656 60.277344 122.503906 C 60.074219 122.910156 51.648438 121.097656 51.242188 121.304688 C 50.839844 121.515625 47.425781 129.417969 46.976562 129.347656 Z M 46.976562 129.347656 "/>
<path style=" stroke:none;fill-rule:nonzero;fill:rgb(78.039217%,100%,76.078433%);fill-opacity:1;" d="M 34.394531 95.960938 C 34.289062 96.121094 30.898438 94.902344 30.722656 94.96875 C 30.542969 95.03125 28.691406 98.117188 28.511719 98.0625 C 28.328125 98.007812 28.4375 94.417969 28.324219 94.265625 C 28.207031 94.117188 24.699219 93.3125 24.691406 93.121094 C 24.6875 92.933594 28.140625 91.929688 28.25 91.769531 C 28.355469 91.613281 28.039062 88.035156 28.214844 87.96875 C 28.394531 87.90625 30.421875 90.878906 30.601562 90.929688 C 30.785156 90.984375 34.097656 89.574219 34.214844 89.726562 C 34.328125 89.875 32.125 92.714844 32.128906 92.90625 C 32.136719 93.097656 34.503906 95.804688 34.394531 95.960938 Z M 34.394531 95.960938 "/>
<path style=" stroke:none;fill-rule:nonzero;fill:rgb(76.078433%,99.215686%,100%);fill-opacity:1;" d="M 75.320312 96.992188 C 75.339844 97.28125 70.117188 99.003906 69.960938 99.25 C 69.808594 99.496094 70.492188 104.945312 70.222656 105.054688 C 69.953125 105.160156 66.695312 100.734375 66.414062 100.664062 C 66.132812 100.589844 61.15625 102.925781 60.96875 102.703125 C 60.785156 102.480469 63.992188 98.019531 63.972656 97.730469 C 63.957031 97.441406 60.195312 93.433594 60.347656 93.191406 C 60.503906 92.945312 65.742188 94.613281 66.011719 94.503906 C 66.28125 94.398438 68.933594 89.585938 69.21875 89.660156 C 69.5 89.730469 69.527344 95.222656 69.714844 95.445312 C 69.898438 95.667969 75.300781 96.703125 75.320312 96.992188 Z M 75.320312 96.992188 "/>
<path style=" stroke:none;fill-rule:nonzero;fill:rgb(76.078433%,94.117647%,100%);fill-opacity:1;" d="M 78.53125 132.785156 C 78.496094 133.074219 73.039062 133.757812 72.839844 133.96875 C 72.636719 134.179688 72.257812 139.65625 71.96875 139.710938 C 71.683594 139.765625 69.347656 134.792969 69.085938 134.667969 C 68.820312 134.542969 63.484375 135.875 63.347656 135.621094 C 63.207031 135.363281 67.21875 131.609375 67.257812 131.320312 C 67.296875 131.03125 64.378906 126.375 64.578125 126.164062 C 64.78125 125.953125 69.597656 128.605469 69.882812 128.550781 C 70.167969 128.496094 73.703125 124.289062 73.964844 124.414062 C 74.226562 124.539062 73.191406 129.933594 73.332031 130.1875 C 73.46875 130.441406 78.570312 132.5 78.53125 132.785156 Z M 78.53125 132.785156 "/>
<path style=" stroke:none;fill-rule:nonzero;fill:rgb(78.039217%,100%,76.078433%);fill-opacity:1;" d="M 28.953125 141.621094 C 28.765625 141.621094 27.898438 138.132812 27.746094 138.019531 C 27.589844 137.90625 23.996094 138.082031 23.941406 137.898438 C 23.882812 137.71875 26.9375 135.816406 26.996094 135.636719 C 27.058594 135.457031 25.78125 132.097656 25.933594 131.988281 C 26.089844 131.875 28.84375 134.1875 29.035156 134.191406 C 29.226562 134.195312 32.03125 131.941406 32.183594 132.054688 C 32.335938 132.167969 30.984375 135.5 31.042969 135.679688 C 31.097656 135.863281 34.109375 137.828125 34.050781 138.007812 C 33.988281 138.191406 30.398438 137.9375 30.242188 138.046875 C 30.089844 138.15625 29.144531 141.625 28.953125 141.621094 Z M 28.953125 141.621094 "/>
<path style=" stroke:none;fill-rule:nonzero;fill:rgb(78.039217%,100%,76.078433%);fill-opacity:1;" d="M 70.097656 118.9375 C 69.925781 118.855469 70.621094 115.328125 70.53125 115.160156 C 70.441406 114.992188 67.109375 113.632812 67.136719 113.445312 C 67.160156 113.253906 70.734375 112.824219 70.867188 112.6875 C 70.996094 112.550781 71.265625 108.964844 71.453125 108.933594 C 71.640625 108.898438 73.152344 112.160156 73.324219 112.242188 C 73.496094 112.324219 76.992188 111.46875 77.082031 111.636719 C 77.175781 111.804688 74.535156 114.25 74.511719 114.4375 C 74.484375 114.628906 76.378906 117.683594 76.246094 117.820312 C 76.117188 117.960938 72.972656 116.210938 72.785156 116.242188 C 72.597656 116.277344 70.269531 119.019531 70.097656 118.9375 Z M 70.097656 118.9375 "/>
<path style=" stroke:none;fill-rule:nonzero;fill:rgb(78.039217%,100%,76.078433%);fill-opacity:1;" d="M 47.910156 91.890625 C 47.738281 91.808594 48.433594 88.28125 48.34375 88.117188 C 48.253906 87.949219 44.921875 86.585938 44.949219 86.398438 C 44.972656 86.210938 48.546875 85.777344 48.679688 85.640625 C 48.808594 85.503906 49.078125 81.921875 49.265625 81.886719 C 49.453125 81.851562 50.964844 85.113281 51.136719 85.195312 C 51.308594 85.277344 54.804688 84.425781 54.894531 84.59375 C 54.984375 84.757812 52.347656 87.203125 52.320312 87.394531 C 52.296875 87.582031 54.191406 90.636719 54.058594 90.777344 C 53.925781 90.914062 50.78125 89.164062 50.59375 89.199219 C 50.40625 89.230469 48.082031 91.972656 47.910156 91.890625 Z M 47.910156 91.890625 "/>
<path style=" stroke:none;fill-rule:nonzero;fill:rgb(57.647061%,100%,67.450982%);fill-opacity:1;" d="M 66.203125 20.527344 C 66.203125 31.867188 57 41.058594 45.644531 41.058594 C 34.292969 41.058594 25.089844 31.867188 25.089844 20.527344 C 25.089844 9.191406 34.292969 0 45.644531 0 C 57 0 66.203125 9.191406 66.203125 20.527344 Z M 66.203125 20.527344 "/>
</g>
</svg>
