<?xml version="1.0" encoding="UTF-8"?>
<svg version="1.1" xmlns="http://www.w3.org/2000/svg" width="500" height="500">
<path d="M0 0 C4.22751761 1.99411208 6.85774834 4.16727629 8.4765625 8.65234375 C9.74593827 14.34558882 9.8400921 20.18868051 10 26 C10.02191406 26.73234863 10.04382813 27.46469727 10.06640625 28.21923828 C10.12463855 30.45875551 10.16100308 32.69739585 10.1875 34.9375 C10.20063232 35.62247559 10.21376465 36.30745117 10.22729492 37.01318359 C10.23993765 45.0364518 8.21409418 51.25744932 4 58 C1.36 58 -1.28 58 -4 58 C-2.87104449 64.27197506 -0.40545017 69.46613865 2.69946289 74.98681641 C4.25518251 77.88104656 5.03883748 79.61214299 4.70703125 82.92578125 C4.47371094 83.61027344 4.24039063 84.29476562 4 85 C-2.49116751 85.60103403 -6.05305438 84.28908796 -11.60546875 80.8984375 C-13.99788121 79.74023649 -13.99788121 79.74023649 -16.55078125 80.65234375 C-18.95897264 81.97742513 -20.90814977 83.41195777 -23 85.1875 C-26.62153459 88.00805246 -26.62153459 88.00805246 -29.9375 87.9375 C-32 87 -32 87 -33 86 C-33.21278111 81.88623185 -33.26322978 78.86614611 -32.05859375 74.90234375 C-30.60692043 70.08798257 -30.29525892 65.17893583 -29.875 60.1875 C-29.78863281 59.23423828 -29.70226562 58.28097656 -29.61328125 57.29882812 C-29.16819316 52.65627261 -29.16819316 52.65627261 -29 48 C-29.99 48.350625 -30.98 48.70125 -32 49.0625 C-36.31988924 50.30051704 -39.60857173 49.87828565 -44 49 C-44.99 48.34 -45.98 47.68 -47 47 C-46.91794473 50.62584571 -46.80521876 54.25015078 -46.6875 57.875 C-46.65366211 59.39480469 -46.65366211 59.39480469 -46.61914062 60.9453125 C-46.40679135 66.96831017 -45.64634047 72.09033588 -43.53442383 77.75048828 C-42.89026626 80.46189433 -43.29272223 82.33146011 -44 85 C-46.31 85 -48.62 85 -51 85 C-51 84.34 -51 83.68 -51 83 C-51.7425 82.731875 -52.485 82.46375 -53.25 82.1875 C-56 81 -56 81 -58 79.375 C-60.57942223 77.60164722 -61.90430783 77.75631578 -65 78 C-67.46075476 78.8471124 -67.46075476 78.8471124 -69.875 80 C-74.23046886 81.85172628 -77.30848738 82.40795762 -82 82 C-83.22597947 78.51229154 -83.22597947 78.51229154 -82.22729492 76.24829102 C-81.81584229 75.67264404 -81.40438965 75.09699707 -80.98046875 74.50390625 C-80.53509766 73.86259766 -80.08972656 73.22128906 -79.63085938 72.56054688 C-79.15455078 71.90119141 -78.67824219 71.24183594 -78.1875 70.5625 C-73.9487245 64.63796034 -73.9487245 64.63796034 -71 58 C-72.13888672 58.05220703 -72.13888672 58.05220703 -73.30078125 58.10546875 C-74.29464844 58.13253906 -75.28851563 58.15960938 -76.3125 58.1875 C-77.29863281 58.22230469 -78.28476563 58.25710938 -79.30078125 58.29296875 C-82 58 -82 58 -83.73046875 56.98828125 C-88.18114599 50.01783597 -87.30046285 41.17266696 -87.25 33.25 C-87.25773438 32.05117187 -87.26546875 30.85234375 -87.2734375 29.6171875 C-87.23013862 9.65640563 -87.23013862 9.65640563 -83.07128906 4.70263672 C-79.81678963 2.02737988 -77.16946874 2.33418633 -73.08984375 2.4765625 C-65.83256659 3.70598745 -58.81574259 7.39871074 -54 13 C-54 13.66 -54 14.32 -54 15 C-53.34 15 -52.68 15 -52 15 C-52 15.66 -52 16.32 -52 17 C-49.16017118 17.94660961 -47.38144671 18.12867774 -44.4375 18.1328125 C-43.11878906 18.13474609 -43.11878906 18.13474609 -41.7734375 18.13671875 C-40.85820312 18.13285156 -39.94296875 18.12898438 -39 18.125 C-38.08476562 18.12886719 -37.16953125 18.13273437 -36.2265625 18.13671875 C-35.34742188 18.13542969 -34.46828125 18.13414062 -33.5625 18.1328125 C-32.75941406 18.13168457 -31.95632813 18.13055664 -31.12890625 18.12939453 C-28.81115535 18.0804355 -28.81115535 18.0804355 -26 17 C-25.28636703 15.69120277 -24.62576736 14.35301051 -24 13 C-20.00377614 7.60140735 -16.02277817 3.95234224 -10 1 C-6.77843917 -0.61078041 -3.49331563 -0.45536703 0 0 Z " fill="#E85B8B" transform="translate(288,218)"/>
<path d="M0 0 C4.22751761 1.99411208 6.85774834 4.16727629 8.4765625 8.65234375 C9.74593827 14.34558882 9.8400921 20.18868051 10 26 C10.02191406 26.73234863 10.04382813 27.46469727 10.06640625 28.21923828 C10.12463855 30.45875551 10.16100308 32.69739585 10.1875 34.9375 C10.20063232 35.62247559 10.21376465 36.30745117 10.22729492 37.01318359 C10.23993765 45.0364518 8.21409418 51.25744932 4 58 C1.36 58 -1.28 58 -4 58 C-2.87104449 64.27197506 -0.40545017 69.46613865 2.69946289 74.98681641 C4.25518251 77.88104656 5.03883748 79.61214299 4.70703125 82.92578125 C4.47371094 83.61027344 4.24039063 84.29476562 4 85 C-2.49116751 85.60103403 -6.05305438 84.28908796 -11.60546875 80.8984375 C-13.99788121 79.74023649 -13.99788121 79.74023649 -16.55078125 80.65234375 C-18.95897264 81.97742513 -20.90814977 83.41195777 -23 85.1875 C-26.62153459 88.00805246 -26.62153459 88.00805246 -29.9375 87.9375 C-32 87 -32 87 -33 86 C-33.21278111 81.88623185 -33.26322978 78.86614611 -32.05859375 74.90234375 C-30.60692043 70.08798257 -30.29525892 65.17893583 -29.875 60.1875 C-29.78863281 59.23423828 -29.70226562 58.28097656 -29.61328125 57.29882812 C-29.16819316 52.65627261 -29.16819316 52.65627261 -29 48 C-29.99 48.350625 -30.98 48.70125 -32 49.0625 C-36.31988924 50.30051704 -39.60857173 49.87828565 -44 49 C-44.99 48.34 -45.98 47.68 -47 47 C-46.91794473 50.62584571 -46.80521876 54.25015078 -46.6875 57.875 C-46.65366211 59.39480469 -46.65366211 59.39480469 -46.61914062 60.9453125 C-46.40679135 66.96831017 -45.64634047 72.09033588 -43.53442383 77.75048828 C-42.89026626 80.46189433 -43.29272223 82.33146011 -44 85 C-46.31 85 -48.62 85 -51 85 C-51 84.34 -51 83.68 -51 83 C-51.7425 82.731875 -52.485 82.46375 -53.25 82.1875 C-56 81 -56 81 -58 79.375 C-60.57942223 77.60164722 -61.90430783 77.75631578 -65 78 C-67.46075476 78.8471124 -67.46075476 78.8471124 -69.875 80 C-74.23046886 81.85172628 -77.30848738 82.40795762 -82 82 C-83.22597947 78.51229154 -83.22597947 78.51229154 -82.22729492 76.24829102 C-81.81584229 75.67264404 -81.40438965 75.09699707 -80.98046875 74.50390625 C-80.53509766 73.86259766 -80.08972656 73.22128906 -79.63085938 72.56054688 C-79.15455078 71.90119141 -78.67824219 71.24183594 -78.1875 70.5625 C-73.9487245 64.63796034 -73.9487245 64.63796034 -71 58 C-72.13888672 58.05220703 -72.13888672 58.05220703 -73.30078125 58.10546875 C-74.29464844 58.13253906 -75.28851563 58.15960938 -76.3125 58.1875 C-77.29863281 58.22230469 -78.28476563 58.25710938 -79.30078125 58.29296875 C-82 58 -82 58 -83.73046875 56.98828125 C-88.18114599 50.01783597 -87.30046285 41.17266696 -87.25 33.25 C-87.25773438 32.05117187 -87.26546875 30.85234375 -87.2734375 29.6171875 C-87.23013862 9.65640563 -87.23013862 9.65640563 -83.07128906 4.70263672 C-79.81678963 2.02737988 -77.16946874 2.33418633 -73.08984375 2.4765625 C-65.83256659 3.70598745 -58.81574259 7.39871074 -54 13 C-54 13.66 -54 14.32 -54 15 C-53.34 15 -52.68 15 -52 15 C-52 15.66 -52 16.32 -52 17 C-49.16017118 17.94660961 -47.38144671 18.12867774 -44.4375 18.1328125 C-43.11878906 18.13474609 -43.11878906 18.13474609 -41.7734375 18.13671875 C-40.85820312 18.13285156 -39.94296875 18.12898438 -39 18.125 C-38.08476562 18.12886719 -37.16953125 18.13273437 -36.2265625 18.13671875 C-35.34742188 18.13542969 -34.46828125 18.13414062 -33.5625 18.1328125 C-32.75941406 18.13168457 -31.95632813 18.13055664 -31.12890625 18.12939453 C-28.81115535 18.0804355 -28.81115535 18.0804355 -26 17 C-25.28636703 15.69120277 -24.62576736 14.35301051 -24 13 C-20.00377614 7.60140735 -16.02277817 3.95234224 -10 1 C-6.77843917 -0.61078041 -3.49331563 -0.45536703 0 0 Z M-10 5 C-12.33333333 5.66666667 -14.66666667 6.33333333 -17 7 C-17.66 7.66 -18.32 8.32 -19 9 C-19 9.99 -19 10.98 -19 12 C-19.99 12.33 -20.98 12.66 -22 13 C-23.41763251 14.80387476 -23.41763251 14.80387476 -24.75 16.9375 C-26.88316586 19.93357969 -28.29123495 21.52063101 -31.875 22.5 C-33.421875 22.7475 -33.421875 22.7475 -35 23 C-35 22.34 -35 21.68 -35 21 C-36.69769531 20.94392578 -36.69769531 20.94392578 -38.4296875 20.88671875 C-39.91149205 20.82106918 -41.39326139 20.75462149 -42.875 20.6875 C-43.62136719 20.66494141 -44.36773437 20.64238281 -45.13671875 20.61914062 C-47.099604 20.52188055 -49.05328322 20.26957706 -51 20 C-51.66 19.01 -52.32 18.02 -53 17 C-53.66 17 -54.32 17 -55 17 C-55 16.278125 -55 15.55625 -55 14.8125 C-56.56949762 10.39828795 -59.89934656 8.95745478 -64 7 C-69.59674784 4.87104102 -75.0706728 4.7529447 -81 5 C-81.33 6.65 -81.66 8.3 -82 10 C-82.66 10 -83.32 10 -84 10 C-85.23344212 24.69117672 -85.09306501 38.44198534 -83 53 C-73.926539 54.77580594 -67.98588319 52.42214588 -60.359375 47.4375 C-54.29123684 43.74035622 -48.69549916 43.49197233 -41.75 43.1875 C-40.75097656 43.12369141 -39.75195312 43.05988281 -38.72265625 42.99414062 C-32.18588175 42.69080011 -27.03112157 43.43024246 -21 46 C-21 46.66 -21 47.32 -21 48 C-19.35 48 -17.7 48 -16 48 C-16 48.99 -16 49.98 -16 51 C-14.35 51.33 -12.7 51.66 -11 52 C-11.33 52.99 -11.66 53.98 -12 55 C-10.20793453 54.85915204 -8.41635083 54.71216299 -6.625 54.5625 C-5.62726563 54.48128906 -4.62953125 54.40007812 -3.6015625 54.31640625 C-1.02072387 54.15034374 -1.02072387 54.15034374 1 53 C1.87393517 50.68858179 1.87393517 50.68858179 2.5625 48 C3.90802348 43.09197652 3.90802348 43.09197652 5 42 C5.21944593 37.67341149 5.18578872 33.34111781 5.18530273 29.00952148 C5.18747367 26.83882589 5.20557982 24.66865138 5.22460938 22.49804688 C5.22754644 21.10937673 5.22952914 19.72070418 5.23046875 18.33203125 C5.23457764 17.07108643 5.23868652 15.8101416 5.24291992 14.51098633 C4.99810065 10.97254814 4.39476456 8.25424907 3 5 C-1.1311489 2.475409 -6.38520349 1.38520349 -10 5 Z " fill="#B44262" transform="translate(288,218)"/>
<path d="M0 0 C3.35735393 0.1936935 5.38111336 0.4342915 8.25 2.1875 C10.90796523 8.44977019 10.58659023 14.77685222 10.56567383 21.4453125 C10.56251873 23.55000874 10.58599318 25.65329001 10.61132812 27.7578125 C10.64412543 34.86923738 10.35844017 40.71879666 7.25 47.1875 C6.92 48.1775 6.59 49.1675 6.25 50.1875 C4.32421875 50.953125 4.32421875 50.953125 1.9375 51.4375 C1.15761719 51.60765625 0.37773437 51.7778125 -0.42578125 51.953125 C-2.82651867 52.19521617 -4.46809588 51.9185448 -6.75 51.1875 C-6.42 50.5275 -6.09 49.8675 -5.75 49.1875 C-7.4 48.8575 -9.05 48.5275 -10.75 48.1875 C-10.75 47.1975 -10.75 46.2075 -10.75 45.1875 C-12.4 45.1875 -14.05 45.1875 -15.75 45.1875 C-15.75 44.5275 -15.75 43.8675 -15.75 43.1875 C-16.74 42.8575 -17.73 42.5275 -18.75 42.1875 C-18.75 41.1975 -18.75 40.2075 -18.75 39.1875 C-20.07 39.1875 -21.39 39.1875 -22.75 39.1875 C-22.42 34.2375 -22.09 29.2875 -21.75 24.1875 C-22.41 24.1875 -23.07 24.1875 -23.75 24.1875 C-24.125 22.125 -24.125 22.125 -23.75 19.1875 C-22.38012333 17.25529742 -20.87622254 15.56380522 -19.2578125 13.8359375 C-17.55095128 12.05389241 -17.55095128 12.05389241 -15.75 9.1875 C-15.09 9.1875 -14.43 9.1875 -13.75 9.1875 C-13.62625 8.56875 -13.5025 7.95 -13.375 7.3125 C-12.75 5.1875 -12.75 5.1875 -10.75 3.1875 C-8.42451993 2.49393577 -6.09119555 1.82600788 -3.75 1.1875 C-2.75 0.1875 -2.75 0.1875 0 0 Z " fill="#F983AF" transform="translate(282.75,220.8125)"/>
<path d="M0 0 C2.84722083 6.39690558 3.38462317 11.54509028 3.1875 18.5 C3.16719727 19.87671875 3.16719727 19.87671875 3.14648438 21.28125 C3.11148684 23.52109215 3.05769376 25.76062752 3 28 C-2.28 27.01 -7.56 26.02 -13 25 C-13.33 25.99 -13.66 26.98 -14 28 C-19.10916517 30.66422132 -24.32806491 31.36203841 -30 31 C-30.86324141 28.60093031 -31.21856546 27.48204164 -30.14453125 25.11328125 C-29.70496094 24.51902344 -29.26539063 23.92476563 -28.8125 23.3125 C-28.38582031 22.71050781 -27.95914063 22.10851562 -27.51953125 21.48828125 C-26 20 -26 20 -23.92578125 19.56640625 C-23.29027344 19.37949219 -22.65476563 19.19257813 -22 19 C-20.93243421 17.01875192 -20.93243421 17.01875192 -20.375 14.625 C-19.51463799 11.51757485 -18.83251313 9.74876969 -17 7 C-15.66923011 6.65657551 -14.33568021 6.32380126 -13 6 C-11.9805881 5.01979625 -10.97753644 4.02196992 -10 3 C-9.34 3 -8.68 3 -8 3 C-8 2.34 -8 1.68 -8 1 C-5.10765685 0.17361624 -3.11257569 0 0 0 Z " fill="#F875A6" transform="translate(236,269)"/>
<path d="M0 0 C4.12803694 0.88522455 7.41863185 2.84075517 11 5 C11.82242187 5.40734375 12.64484375 5.8146875 13.4921875 6.234375 C16.72963285 8.5136979 17.89884562 10.86200242 19.6875 14.375 C20.55955078 16.05722656 20.55955078 16.05722656 21.44921875 17.7734375 C25 25.16120907 25 25.16120907 25 30 C23.02 30 21.04 30 19 30 C19 29.34 19 28.68 19 28 C17.88625 27.690625 16.7725 27.38125 15.625 27.0625 C12 26 12 26 10 25 C4.58002384 24.20683276 1.4702699 26.18734094 -2.94921875 29.00390625 C-5 30 -5 30 -8 29 C-7.505 24.545 -7.505 24.545 -7 20 C-6.34 20 -5.68 20 -5 20 C-5 19.34 -5 18.68 -5 18 C-4.34 18 -3.68 18 -3 18 C-2.855625 17.195625 -2.71125 16.39125 -2.5625 15.5625 C-2 13 -2 13 -1 12 C-0.76572222 9.98405418 -0.58663876 7.961526 -0.4375 5.9375 C-0.35371094 4.83277344 -0.26992188 3.72804688 -0.18359375 2.58984375 C-0.12300781 1.73519531 -0.06242187 0.88054687 0 0 Z " fill="#E56290" transform="translate(266,272)"/>
<path d="M0 0 C2.97 0 5.94 0 9 0 C9.33 1.32 9.66 2.64 10 4 C8.78515625 5.7109375 8.78515625 5.7109375 7.0625 7.375 C4.3444986 10.24853037 4.3444986 10.24853037 3.75 14.1875 C3.8325 15.115625 3.915 16.04375 4 17 C3 19.375 3 19.375 2 21 C4.9254644 21.2236068 4.9254644 21.2236068 7 20 C6.98839844 20.72703125 6.97679687 21.4540625 6.96484375 22.203125 C6.89912277 29.52631959 7.2765343 36.71366686 8 44 C8.66 44 9.32 44 10 44 C10 44.99 10 45.98 10 47 C5.47397657 48.83196187 2.74659999 48.95064958 -2 48 C-4.09306501 33.44198534 -4.23344212 19.69117672 -3 5 C-2.34 5 -1.68 5 -1 5 C-0.67 3.35 -0.34 1.7 0 0 Z M2 23 C3 25 3 25 3 25 Z M1 25 C2 27 2 27 2 27 Z " fill="#F589B2" transform="translate(207,223)"/>
<path d="M0 0 C2.25684543 5.36000789 3.36263859 9.1977825 3 15 C1 13 1 13 -0.4375 10 C-1.80851764 6.77974457 -1.80851764 6.77974457 -5 5 C-5.9075 5.804375 -6.815 6.60875 -7.75 7.4375 C-10.71442169 9.94960383 -10.71442169 9.94960383 -13.125 10.375 C-16.02450068 11.34150023 -16.77583039 13.60414456 -18.16796875 16.2109375 C-19.11826155 18.16592289 -19.11826155 18.16592289 -20 21 C-18.68 21 -17.36 21 -16 21 C-16 21.66 -16 22.32 -16 23 C-15.31292969 22.97679687 -14.62585938 22.95359375 -13.91796875 22.9296875 C-12.56638672 22.90261719 -12.56638672 22.90261719 -11.1875 22.875 C-10.29417969 22.85179687 -9.40085938 22.82859375 -8.48046875 22.8046875 C-6 23 -6 23 -3 25 C-3.33 25.66 -3.66 26.32 -4 27 C-6.97 26.34 -9.94 25.68 -13 25 C-13.33 25.99 -13.66 26.98 -14 28 C-19.10916517 30.66422132 -24.32806491 31.36203841 -30 31 C-30.86324141 28.60093031 -31.21856546 27.48204164 -30.14453125 25.11328125 C-29.70496094 24.51902344 -29.26539063 23.92476563 -28.8125 23.3125 C-28.38582031 22.71050781 -27.95914063 22.10851562 -27.51953125 21.48828125 C-26 20 -26 20 -23.92578125 19.56640625 C-23.29027344 19.37949219 -22.65476563 19.19257813 -22 19 C-20.93243421 17.01875192 -20.93243421 17.01875192 -20.375 14.625 C-19.51463799 11.51757485 -18.83251313 9.74876969 -17 7 C-15.66923011 6.65657551 -14.33568021 6.32380126 -13 6 C-11.9805881 5.01979625 -10.97753644 4.02196992 -10 3 C-9.34 3 -8.68 3 -8 3 C-8 2.34 -8 1.68 -8 1 C-5.10765685 0.17361624 -3.11257569 0 0 0 Z " fill="#E682A9" transform="translate(236,269)"/>
<path d="M0 0 C0.99 0 1.98 0 3 0 C5.45497504 6.39796183 5.33681794 12.51675633 5.31567383 19.2578125 C5.31251873 21.36250874 5.33599318 23.46579001 5.36132812 25.5703125 C5.39412543 32.68173738 5.10844017 38.53129666 2 45 C1.67 45.99 1.34 46.98 1 48 C-0.92578125 48.765625 -0.92578125 48.765625 -3.3125 49.25 C-4.09238281 49.42015625 -4.87226563 49.5903125 -5.67578125 49.765625 C-8.07651867 50.00771617 -9.71809588 49.7310448 -12 49 C-11.67 48.34 -11.34 47.68 -11 47 C-12.65 46.67 -14.3 46.34 -16 46 C-16 45.01 -16 44.02 -16 43 C-15.34 43 -14.68 43 -14 43 C-14 43.66 -14 44.32 -14 45 C-8.99103695 44.62789263 -8.99103695 44.62789263 -4.6875 42.25 C-1.27996477 37.70661969 -0.68541238 33.47391968 -0.375 27.875 C-0.33705322 27.19501953 -0.29910645 26.51503906 -0.26000977 25.81445312 C0.16742326 17.2153924 0.08419392 8.60649009 0 0 Z " fill="#C94B71" transform="translate(288,223)"/>
<path d="M0 0 C0.38218767 1.65614657 0.71395102 3.32457024 1 5 C0.67 5.33 0.34 5.66 0 6 C0.66 6.33 1.32 6.66 2 7 C2.484375 9.43359375 2.484375 9.43359375 2.75 12.4375 C2.89695313 13.92056641 2.89695313 13.92056641 3.046875 15.43359375 C3 18 3 18 1 20 C-2.0390625 20.1953125 -2.0390625 20.1953125 -5.625 20.125 C-6.81351563 20.10695313 -8.00203125 20.08890625 -9.2265625 20.0703125 C-10.14179688 20.04710937 -11.05703125 20.02390625 -12 20 C-14.0095763 13.97127109 -13.29479052 7.15025498 -12 1 C-8.0186217 -0.3271261 -4.14954773 -0.06915913 0 0 Z " fill="#FA80AA" transform="translate(252,240)"/>
<path d="M0 0 C4.56654362 -0.31493404 7.13595771 -0.40756712 11.3125 1.5625 C16.63842835 6.39299316 17.14425959 10.95235525 17.6875 17.875 C17.81670039 20.58551658 17.9253812 23.28822847 18 26 C18.02191406 26.73234863 18.04382813 27.46469727 18.06640625 28.21923828 C18.12463855 30.45875551 18.16100308 32.69739585 18.1875 34.9375 C18.20063232 35.62247559 18.21376465 36.30745117 18.22729492 37.01318359 C18.23993765 45.0364518 16.21409418 51.25744932 12 58 C9.36 58 6.72 58 4 58 C5.12895551 64.27197506 7.59454983 69.46613865 10.69946289 74.98681641 C12.25518251 77.88104656 13.03883748 79.61214299 12.70703125 82.92578125 C12.35705078 83.95251953 12.35705078 83.95251953 12 85 C4.73846154 85.49230769 4.73846154 85.49230769 1 83 C0.34 82.34 -0.32 81.68 -1 81 C0.98 81.33 2.96 81.66 5 82 C5 82.66 5 83.32 5 84 C6.98 84 8.96 84 11 84 C9.15066916 78.47267038 7.28061321 73.24921667 4.25 68.25 C1.88228116 64.23139463 1.50946601 61.61101946 2 57 C4.97 57 7.94 57 11 57 C11.12375 55.906875 11.2475 54.81375 11.375 53.6875 C11.7789235 50.35074065 12.38218045 47.10312363 13.0625 43.8125 C14.76554844 34.54740812 14.06762524 25.2292447 13.5625 15.875 C13.52342529 15.14007324 13.48435059 14.40514648 13.4440918 13.64794922 C13.25584349 10.56182879 12.98268901 7.94806702 12 5 C8.18142796 2.0799155 4.72867022 1.46359512 0 1 C0 0.67 0 0.34 0 0 Z " fill="#752C42" transform="translate(280,218)"/>
<path d="M0 0 C3.14191424 1.53604696 6.08596738 3.05731159 9 5 C9.6875 7.625 9.6875 7.625 10 10 C10.66 10 11.32 10 12 10 C12.99 11.485 12.99 11.485 14 13 C16.77262255 13.38394667 19.34323528 13.60342248 22.125 13.6875 C22.87910156 13.72166016 23.63320312 13.75582031 24.41015625 13.79101562 C26.27291201 13.87354278 28.13643326 13.93844711 30 14 C30 14.66 30 15.32 30 16 C31.98 15.67 33.96 15.34 36 15 C36 16.65 36 18.3 36 20 C36.66 20 37.32 20 38 20 C38.02693575 22.12493141 38.04636628 24.24995912 38.0625 26.375 C38.07410156 27.55835938 38.08570313 28.74171875 38.09765625 29.9609375 C38 33 38 33 37 35 C38.32 35 39.64 35 41 35 C41 35.66 41 36.32 41 37 C39.89914062 36.82855469 38.79828125 36.65710938 37.6640625 36.48046875 C32.53444667 35.84237255 27.52578657 36.04544928 22.375 36.3125 C21.45976562 36.34794922 20.54453125 36.38339844 19.6015625 36.41992188 C14.73222708 36.65564837 10.57190459 37.13934116 6 39 C6 38.34 6 37.68 6 37 C6.99 37 7.98 37 9 37 C9 36.34 9 35.68 9 35 C16.01805857 33.89912807 22.90565767 33.90266908 30 34 C30.96070434 31.11788698 31.10581883 29.30149956 31.0625 26.3125 C31.05347656 25.50425781 31.04445312 24.69601563 31.03515625 23.86328125 C31.02355469 23.24839844 31.01195312 22.63351563 31 22 C30.01 21.67 29.02 21.34 28 21 C28.2475 20.071875 28.2475 20.071875 28.5 19.125 C29.07634644 17.03936614 29.07634644 17.03936614 29 15 C28.03578125 15.16757813 27.0715625 15.33515625 26.078125 15.5078125 C24.81484375 15.71148437 23.5515625 15.91515625 22.25 16.125 C20.99703125 16.33382812 19.7440625 16.54265625 18.453125 16.7578125 C15.0739334 16.99481463 13.67749858 16.99499894 11 15 C10.25 12.875 10.25 12.875 10 11 C9.01 11 8.02 11 7 11 C6.67 9.68 6.34 8.36 6 7 C5.34 7 4.68 7 4 7 C4 6.01 4 5.02 4 4 C2.02 4 0.04 4 -2 4 C-1.34 2.68 -0.68 1.36 0 0 Z " fill="#D74E7A" transform="translate(223,225)"/>
<path d="M0 0 C1.32 0 2.64 0 4 0 C4 0.66 4 1.32 4 2 C4.928125 2.12375 4.928125 2.12375 5.875 2.25 C8 3 8 3 9.25 5.0625 C9.4975 5.701875 9.745 6.34125 10 7 C10.66 7 11.32 7 12 7 C13.96189209 10.6678852 15.39301257 13.87248551 16 18 C16.66 18 17.32 18 18 18 C18.33 19.65 18.66 21.3 19 23 C15.53058454 22.54177532 12.32604951 22.10868317 9 21 C9 20.34 9 19.68 9 19 C7.35 18.67 5.7 18.34 4 18 C3.87625 16.865625 3.7525 15.73125 3.625 14.5625 C3.41875 13.386875 3.2125 12.21125 3 11 C2.34 10.67 1.68 10.34 1 10 C0.5859375 7.71484375 0.5859375 7.71484375 0.375 4.9375 C0.30023438 4.01839844 0.22546875 3.09929687 0.1484375 2.15234375 C0.09945313 1.44207031 0.05046875 0.73179687 0 0 Z " fill="#F77CAA" transform="translate(268,275)"/>
<path d="M0 0 C-0.01160156 0.72703125 -0.02320313 1.4540625 -0.03515625 2.203125 C-0.10087723 9.52631959 0.2765343 16.71366686 1 24 C1.66 24 2.32 24 3 24 C3 24.99 3 25.98 3 27 C-1.46236469 28.80619523 -4.31034294 29.11658501 -9 28 C-10.12862175 22.63904667 -10.09688221 17.44693314 -10 12 C-8.68 12 -7.36 12 -6 12 C-5.83564453 11.07767578 -5.83564453 11.07767578 -5.66796875 10.13671875 C-5.50941406 9.32847656 -5.35085937 8.52023438 -5.1875 7.6875 C-5.03667969 6.88699219 -4.88585937 6.08648437 -4.73046875 5.26171875 C-4.01562014 3.04836396 -2.73463447 0 0 0 Z " fill="#F673A2" transform="translate(214,243)"/>
<path d="M0 0 C2.36120297 0.25392418 4.7150539 0.57798123 7.0625 0.9375 C8.35285156 1.13214844 9.64320313 1.32679688 10.97265625 1.52734375 C11.97167969 1.68332031 12.97070312 1.83929688 14 2 C14 2.66 14 3.32 14 4 C15.32 4 16.64 4 18 4 C18 4.66 18 5.32 18 6 C15.36 6.66 12.72 7.32 10 8 C9.96261719 8.845625 9.92523438 9.69125 9.88671875 10.5625 C9.54703354 16.42373503 9.13029355 21.43403821 6.765625 26.8125 C5.066621 31.66679713 4.6585099 36.91785304 4 42 C7.465 41.505 7.465 41.505 11 41 C9.8125 42.5625 9.8125 42.5625 8 44 C3.57894737 43.57894737 3.57894737 43.57894737 2 42 C1.78721889 37.88623185 1.73677022 34.86614611 2.94140625 30.90234375 C4.39307957 26.08798257 4.70474108 21.17893583 5.125 16.1875 C5.25455078 14.75760742 5.25455078 14.75760742 5.38671875 13.29882812 C5.83180684 8.65627261 5.83180684 8.65627261 6 4 C4.515 4.5259375 4.515 4.5259375 3 5.0625 C-1.30255063 6.3005809 -4.63433338 5.90324137 -9 5 C-9.33 4.34 -9.66 3.68 -10 3 C-9.04287109 2.80083984 -9.04287109 2.80083984 -8.06640625 2.59765625 C-7.24011719 2.42105469 -6.41382813 2.24445313 -5.5625 2.0625 C-4.73878906 1.88847656 -3.91507813 1.71445312 -3.06640625 1.53515625 C-1.02338796 1.19247006 -1.02338796 1.19247006 0 0 Z " fill="#742539" transform="translate(253,262)"/>
<path d="M0 0 C3.25 -0.3125 3.25 -0.3125 7 0 C9.4375 2.5 9.4375 2.5 11 5 C7.50470706 3.88786134 4.25530808 2.68426809 1 1 C1.03480469 1.79664063 1.06960938 2.59328125 1.10546875 3.4140625 C1.37434095 13.93848858 1.37434095 13.93848858 -2 19 C-2.66 19 -3.32 19 -4 19 C-4 19.66 -4 20.32 -4 21 C-4.66 21 -5.32 21 -6 21 C-6 23.97 -6 26.94 -6 30 C-2.87949413 29.05659125 -0.244245 28.15875925 2.5 26.375 C5.59999645 24.67000195 7.51069538 24.54487331 11 25 C12.875 26.5 12.875 26.5 14 28 C12.96875 27.731875 11.9375 27.46375 10.875 27.1875 C6.87770357 26.55816119 6.87770357 26.55816119 4.125 29.375 C3.650625 29.84035156 3.17625 30.30570312 2.6875 30.78515625 C-0.4514711 33.0449248 -4.2389179 32.90806244 -8 33 C-8.53501484 23.72640936 -6.37580324 15.18084954 -2 7 C-1.23254373 4.68341903 -0.61462827 2.36395489 0 0 Z " fill="#CE4974" transform="translate(265,271)"/>
<path d="M0 0 C0.66 0.33 1.32 0.66 2 1 C1.28972656 1.47050781 0.57945312 1.94101563 -0.15234375 2.42578125 C-1.07144531 3.04839844 -1.99054688 3.67101562 -2.9375 4.3125 C-3.85402344 4.92738281 -4.77054687 5.54226562 -5.71484375 6.17578125 C-8.25778947 7.8664904 -8.25778947 7.8664904 -9 11 C-10.30973998 12.3565164 -11.64802142 13.68557638 -13 15 C-13.763125 16.051875 -14.52625 17.10375 -15.3125 18.1875 C-18.54777073 21.57324844 -20.41259698 21.82010184 -25 22 C-25 21.34 -25 20.68 -25 20 C-30.28 20 -35.56 20 -41 20 C-41.66 18.68 -42.32 17.36 -43 16 C-43.66 16 -44.32 16 -45 16 C-45.33 14.35 -45.66 12.7 -46 11 C-45.01 11.495 -45.01 11.495 -44 12 C-44 12.66 -44 13.32 -44 14 C-43.34 14 -42.68 14 -42 14 C-42 14.66 -42 15.32 -42 16 C-39.16017118 16.94660961 -37.38144671 17.12867774 -34.4375 17.1328125 C-33.11878906 17.13474609 -33.11878906 17.13474609 -31.7734375 17.13671875 C-30.85820312 17.13285156 -29.94296875 17.12898438 -29 17.125 C-27.62714844 17.13080078 -27.62714844 17.13080078 -26.2265625 17.13671875 C-25.34742188 17.13542969 -24.46828125 17.13414062 -23.5625 17.1328125 C-22.75941406 17.13168457 -21.95632813 17.13055664 -21.12890625 17.12939453 C-18.81115535 17.0804355 -18.81115535 17.0804355 -16 16 C-15.28636703 14.69120277 -14.62576736 13.35301051 -14 12 C-10.05206878 6.66664701 -6.07469691 2.73956919 0 0 Z " fill="#843A50" transform="translate(278,219)"/>
<path d="M0 0 C0.33 0 0.66 0 1 0 C1.05455124 2.66694948 1.09393392 5.33275498 1.125 8 C1.14175781 8.74378906 1.15851563 9.48757812 1.17578125 10.25390625 C1.2478264 18.53909853 -0.60367223 24.96587557 -5 32 C-7.64 32 -10.28 32 -13 32 C-11.87104449 38.27197506 -9.40545017 43.46613865 -6.30053711 48.98681641 C-4.74481749 51.88104656 -3.96116252 53.61214299 -4.29296875 56.92578125 C-4.64294922 57.95251953 -4.64294922 57.95251953 -5 59 C-12.26153846 59.49230769 -12.26153846 59.49230769 -16 57 C-16.66 56.34 -17.32 55.68 -18 55 C-16.02 55.33 -14.04 55.66 -12 56 C-12 56.66 -12 57.32 -12 58 C-10.02 58 -8.04 58 -6 58 C-7.84933084 52.47267038 -9.71938679 47.24921667 -12.75 42.25 C-15.11771884 38.23139463 -15.49053399 35.61101946 -15 31 C-12.03 31 -9.06 31 -6 31 C-1.76199176 20.68934792 -0.43248287 11.0506829 0 0 Z " fill="#4E1827" transform="translate(297,244)"/>
<path d="M0 0 C2.76579941 2.76579941 2.28527855 4.64881753 2.32861328 8.42578125 C2.3232959 9.27527344 2.31797852 10.12476563 2.3125 11 C2.30839111 12.28970703 2.30839111 12.28970703 2.30419922 13.60546875 C2.17995985 21.15693767 1.24967126 27.6254931 -3 34 C-5.4375 34.375 -5.4375 34.375 -8 34 C-9.8125 32.5 -9.8125 32.5 -11 31 C-9.824375 30.319375 -9.824375 30.319375 -8.625 29.625 C-4.74163359 27.22101127 -3.36448479 25.3101322 -2 21 C-1.73275852 18.31105478 -1.53937559 15.6934912 -1.4375 13 C-1.24625966 8.58926533 -1.01942182 4.31358655 0 0 Z " fill="#EB608D" transform="translate(289,237)"/>
<path d="M0 0 C2.25684543 5.36000789 3.36263859 9.1977825 3 15 C1 13 1 13 -0.4375 10 C-1.80851764 6.77974457 -1.80851764 6.77974457 -5 5 C-5.9075 5.804375 -6.815 6.60875 -7.75 7.4375 C-10.20104412 9.50214422 -11.89467867 10.25043968 -15 11 C-16.75422772 12.97670607 -16.75422772 12.97670607 -18 15 C-18.99 14.67 -19.98 14.34 -21 14 C-17.53549696 7.19472617 -17.53549696 7.19472617 -14.9375 6.25 C-14.298125 6.1675 -13.65875 6.085 -13 6 C-11.9805881 5.01979625 -10.97753644 4.02196992 -10 3 C-9.34 3 -8.68 3 -8 3 C-8 2.34 -8 1.68 -8 1 C-5.10765685 0.17361624 -3.11257569 0 0 0 Z " fill="#DC5B86" transform="translate(236,269)"/>
<path d="M0 0 C5.5484204 0.94456085 10.42353002 3.44377091 15.09765625 6.52734375 C16.08765625 8.01234375 16.08765625 8.01234375 17.09765625 9.52734375 C13.09765625 7.52734375 13.09765625 7.52734375 11.34765625 6.52734375 C5.23458435 3.8104229 -1.30633337 3.10754837 -7.90234375 2.52734375 C-8.23234375 4.17734375 -8.56234375 5.82734375 -8.90234375 7.52734375 C-9.56234375 7.52734375 -10.22234375 7.52734375 -10.90234375 7.52734375 C-11.87083498 16.79079317 -12.02424398 25.97055994 -11.96484375 35.27734375 C-11.95981232 36.66796712 -11.95525235 38.05859227 -11.95117188 39.44921875 C-11.93950722 42.8086408 -11.92313989 46.16796794 -11.90234375 49.52734375 C-12.23234375 49.52734375 -12.56234375 49.52734375 -12.90234375 49.52734375 C-14.3271647 43.37680741 -14.0865766 37.24757137 -14.08984375 30.96484375 C-14.10208984 29.75248047 -14.11433594 28.54011719 -14.12695312 27.29101562 C-14.15924789 7.21443365 -14.15924789 7.21443365 -9.97338867 2.23071289 C-6.7217453 -0.44366124 -4.07676175 -0.13717233 0 0 Z " fill="#7C3B4F" transform="translate(214.90234375,220.47265625)"/>
<path d="M0 0 C0.33 0 0.66 0 1 0 C1.33 2.31 1.66 4.62 2 7 C2.66 7 3.32 7 4 7 C5.62950412 11.12168689 6.26264601 13.70700357 5 18 C2.69 18 0.38 18 -2 18 C-2 17.34 -2 16.68 -2 16 C-2.7425 15.731875 -3.485 15.46375 -4.25 15.1875 C-7 14 -7 14 -9 12.4375 C-11.32462791 10.76667369 -13.19109059 10.39012631 -16 10 C-16 9.67 -16 9.34 -16 9 C-10.5814234 8.77422598 -6.22512279 9.53329887 -1 11 C-0.67 7.37 -0.34 3.74 0 0 Z " fill="#A35E76" transform="translate(239,285)"/>
<path d="M0 0 C5.68421053 3.05263158 5.68421053 3.05263158 7 7 C7.23408638 9.62985929 7.42240505 12.24005945 7.5625 14.875 C7.6035083 15.63441895 7.6445166 16.39383789 7.68676758 17.17626953 C8.22241595 27.73175857 8.32758485 37.62977821 6 48 C4.515 48.495 4.515 48.495 3 49 C3.875 42.125 3.875 42.125 5 41 C5.1002093 38.72052208 5.13081303 36.43792865 5.1328125 34.15625 C5.13376923 33.47195923 5.13472595 32.78766846 5.13571167 32.0826416 C5.1363933 30.63338123 5.13454023 29.18411782 5.13037109 27.73486328 C5.12502252 25.50937072 5.1303166 23.28407999 5.13671875 21.05859375 C5.13605797 19.65364539 5.1347768 18.24869715 5.1328125 16.84375 C5.13168457 15.55662109 5.13055664 14.26949219 5.12939453 12.94335938 C5.33686143 10.11173843 5.33686143 10.11173843 4 9 C3.95936168 7.33382885 3.957279 5.66611905 4 4 C2.20991533 3.77848451 0.41781838 3.57317787 -1.375 3.375 C-2.37273437 3.25898438 -3.37046875 3.14296875 -4.3984375 3.0234375 C-5.25695312 3.01570312 -6.11546875 3.00796875 -7 3 C-7.66 3.66 -8.32 4.32 -9 5 C-11.125 4.625 -11.125 4.625 -13 4 C-8.52185802 0.5048648 -5.69445692 -0.81349385 0 0 Z " fill="#A24865" transform="translate(287,219)"/>
<path d="M0 0 C2.62714298 2.34374855 4.03210328 4.71825693 5.5625 7.875 C5.97628906 8.71804688 6.39007813 9.56109375 6.81640625 10.4296875 C10 17.34323432 10 17.34323432 10 22 C8.02 22 6.04 22 4 22 C4 21.34 4 20.68 4 20 C-0.97573932 18.5487427 -5.96643704 17.23631371 -11 16 C-11 15.34 -11 14.68 -11 14 C-8.69 14 -6.38 14 -4 14 C-4 14.66 -4 15.32 -4 16 C-0.7 16.66 2.6 17.32 6 18 C5.505 15.525 5.505 15.525 5 13 C4.34 13 3.68 13 3 13 C2.690625 12.195625 2.38125 11.39125 2.0625 10.5625 C1.23664655 8.10919595 1.23664655 8.10919595 0 7 C-0.04092937 4.66702567 -0.04241723 2.33294775 0 0 Z " fill="#BC6785" transform="translate(281,280)"/>
<path d="M0 0 C0.66 0.66 1.32 1.32 2 2 C1.649375 2.61875 1.29875 3.2375 0.9375 3.875 C0.4734375 4.926875 0.4734375 4.926875 0 6 C0.33 6.66 0.66 7.32 1 8 C0.855625 8.53625 0.71125 9.0725 0.5625 9.625 C-0.26223069 13.10719626 -0.05958164 16.42510139 0 20 C-2 19 -4 18 -6 17 C-6 12.71 -6 8.42 -6 4 C-4.68 3.34 -3.36 2.68 -2 2 C-1.34 1.34 -0.68 0.68 0 0 Z " fill="#F57EAB" transform="translate(209,238)"/>
<path d="M0 0 C1.65 0 3.3 0 5 0 C5.38218767 1.65614657 5.71395102 3.32457024 6 5 C5.67 5.33 5.34 5.66 5 6 C5.66 6.33 6.32 6.66 7 7 C7.484375 9.43359375 7.484375 9.43359375 7.75 12.4375 C7.89695313 13.92056641 7.89695313 13.92056641 8.046875 15.43359375 C8 18 8 18 6 20 C2.9609375 20.1953125 2.9609375 20.1953125 -0.625 20.125 C-1.81351563 20.10695313 -3.00203125 20.08890625 -4.2265625 20.0703125 C-5.14179688 20.04710937 -6.05703125 20.02390625 -7 20 C-7 19.67 -7 19.34 -7 19 C-3.37 19 0.26 19 4 19 C3.814375 16.3084375 3.814375 16.3084375 3.625 13.5625 C3.55539063 12.55316406 3.48578125 11.54382813 3.4140625 10.50390625 C3.27742187 9.67761719 3.14078125 8.85132813 3 8 C2.34 7.67 1.68 7.34 1 7 C0.59270772 4.67843403 0.25561323 2.3431213 0 0 Z " fill="#EE6793" transform="translate(247,240)"/>
<path d="M0 0 C3 -0.3125 3 -0.3125 6 0 C8.77042109 2.77042109 8.39796106 4.76533805 8.625 8.625 C8.69976562 9.81351563 8.77453125 11.00203125 8.8515625 12.2265625 C8.92503906 13.59941406 8.92503906 13.59941406 9 15 C8.34 15 7.68 15 7 15 C6.5978125 14.0409375 6.5978125 14.0409375 6.1875 13.0625 C5.11332248 10.66868314 5.11332248 10.66868314 2 10 C1.67 8.02 1.34 6.04 1 4 C0.01 3.67 -0.98 3.34 -2 3 C-1.34 2.01 -0.68 1.02 0 0 Z " fill="#F673A1" transform="translate(280,221)"/>
<path d="M0 0 C0.33 0 0.66 0 1 0 C1 3.96 1 7.92 1 12 C2.32 12 3.64 12 5 12 C5 12.66 5 13.32 5 14 C3.89914062 13.82855469 2.79828125 13.65710938 1.6640625 13.48046875 C-3.46555333 12.84237255 -8.47421343 13.04544928 -13.625 13.3125 C-14.54023438 13.34794922 -15.45546875 13.38339844 -16.3984375 13.41992188 C-21.26777292 13.65564837 -25.42809541 14.13934116 -30 16 C-30 15.34 -30 14.68 -30 14 C-29.01 14 -28.02 14 -27 14 C-27 13.34 -27 12.68 -27 12 C-20.35495349 10.91509445 -13.90308078 11.0311086 -7.1953125 11.2578125 C-6.14085937 11.17273438 -5.08640625 11.08765625 -4 11 C-1.69960876 7.54941314 -1.5261725 5.05904498 -1 1 C-0.67 0.67 -0.34 0.34 0 0 Z " fill="#C74368" transform="translate(259,248)"/>
<path d="M0 0 C1.98 0.495 1.98 0.495 4 1 C4.33 9.91 4.66 18.82 5 28 C2.12917399 25.12917399 2.07170824 21.79979466 1.4375 17.9375 C1.01575714 13.07602506 1.01575714 13.07602506 -1 9 C-1.23728814 2.47457627 -1.23728814 2.47457627 0 0 Z " fill="#691E31" transform="translate(237,264)"/>
<path d="M0 0 C0.66 0.66 1.32 1.32 2 2 C5.12814514 2.24360073 5.12814514 2.24360073 8.625 2.125 C9.81351563 2.10695313 11.00203125 2.08890625 12.2265625 2.0703125 C13.14179688 2.04710937 14.05703125 2.02390625 15 2 C15.51078171 8.00168507 14.28641245 12.87803277 11 18 C10.01 18.33 9.02 18.66 8 19 C9.68673918 14.50202887 11.81673892 10.27113698 14 6 C12.86111328 6.05220703 12.86111328 6.05220703 11.69921875 6.10546875 C10.70535156 6.13253906 9.71148437 6.15960938 8.6875 6.1875 C7.70136719 6.22230469 6.71523437 6.25710938 5.69921875 6.29296875 C3 6 3 6 1.14453125 4.67578125 C0 3 0 3 0 0 Z " fill="#752B3F" transform="translate(203,270)"/>
<path d="M0 0 C0.99 0 1.98 0 3 0 C4.00013174 4.14241416 4.11516542 8.01480304 4.09765625 12.26953125 C4.0962413 12.95053391 4.09482635 13.63153656 4.09336853 14.33317566 C4.08780298 16.49299647 4.07525703 18.65271089 4.0625 20.8125 C4.05748054 22.28320162 4.05291841 23.75390488 4.04882812 25.22460938 C4.03784488 28.8164404 4.02060422 32.4082098 4 36 C3.01 36.495 3.01 36.495 2 37 C2.01047363 36.410979 2.02094727 35.82195801 2.03173828 35.21508789 C2.07379554 32.49760354 2.0994818 29.78018804 2.125 27.0625 C2.14175781 26.13630859 2.15851563 25.21011719 2.17578125 24.25585938 C2.21320325 18.92322509 1.81783637 14.1380255 0.4453125 8.9765625 C-0.23869782 5.94051671 -0.1318888 3.09938685 0 0 Z " fill="#D7517E" transform="translate(288,223)"/>
<path d="M0 0 C3.14191424 1.53604696 6.08596738 3.05731159 9 5 C9.6875 7.625 9.6875 7.625 10 10 C10.66 10 11.32 10 12 10 C12.99 11.485 12.99 11.485 14 13 C17.06556598 13.73343428 17.06556598 13.73343428 20 14 C18.3125 15.625 18.3125 15.625 16 17 C13.3125 16.4375 13.3125 16.4375 11 15 C10.1875 12.875 10.1875 12.875 10 11 C9.01 11 8.02 11 7 11 C6.67 9.68 6.34 8.36 6 7 C5.34 7 4.68 7 4 7 C4 6.01 4 5.02 4 4 C2.02 4 0.04 4 -2 4 C-1.34 2.68 -0.68 1.36 0 0 Z " fill="#B44E70" transform="translate(223,225)"/>
<path d="M0 0 C0.96661363 3.12180401 0.98988909 5.52083795 0.5625 8.75 C0.40974609 9.94882812 0.40974609 9.94882812 0.25390625 11.171875 C0.12822266 12.07679688 0.12822266 12.07679688 0 13 C3.12050587 12.05659125 5.755755 11.15875925 8.5 9.375 C11.59999645 7.67000195 13.51069538 7.54487331 17 8 C18.875 9.5 18.875 9.5 20 11 C18.96875 10.731875 17.9375 10.46375 16.875 10.1875 C12.87770357 9.55816119 12.87770357 9.55816119 10.125 12.375 C9.650625 12.84035156 9.17625 13.30570312 8.6875 13.78515625 C5.5485289 16.0449248 1.7610821 15.90806244 -2 16 C-2.20674944 10.21101581 -1.59162079 5.57067277 0 0 Z " fill="#B4607B" transform="translate(259,288)"/>
<path d="M0 0 C3.57196652 3.17596137 5.70504894 6.70923138 7.8125 10.9375 C8.13669922 11.54529297 8.46089844 12.15308594 8.79492188 12.77929688 C10.28074785 15.72867734 11.0388177 17.62039317 10.69921875 20.94140625 C10.46847656 21.62074219 10.23773438 22.30007813 10 23 C2.73846154 23.49230769 2.73846154 23.49230769 -1 21 C-1.66 20.34 -2.32 19.68 -3 19 C-1.02 19.33 0.96 19.66 3 20 C3 20.66 3 21.32 3 22 C4.98 22 6.96 22 9 22 C6.84300206 15.55310671 4.45780962 9.61496602 0.953125 3.77734375 C0 2 0 2 0 0 Z " fill="#5B2B3A" transform="translate(282,280)"/>
<path d="M0 0 C0.79921875 0.28746094 1.5984375 0.57492187 2.421875 0.87109375 C3.02515625 1.09925781 3.6284375 1.32742188 4.25 1.5625 C1.66231987 2.85634007 0.28152494 2.40507102 -2.5625 2 C-6.74299814 1.52291034 -8.87812667 1.91695383 -12.75 3.5625 C-16.08979495 3.74372918 -19.40850427 3.67929014 -22.75 3.5625 C-23.08 2.5725 -23.41 1.5825 -23.75 0.5625 C-22.19539062 0.47162109 -22.19539062 0.47162109 -20.609375 0.37890625 C-19.23957127 0.29446629 -17.86978025 0.20982003 -16.5 0.125 C-15.81808594 0.08568359 -15.13617188 0.04636719 -14.43359375 0.00585938 C-10.45273154 -0.24057909 -10.45273154 -0.24057909 -6.5625 -1.0625 C-4.02997097 -1.58647152 -2.40331663 -0.88357229 0 0 Z " fill="#982743" transform="translate(260.75,261.4375)"/>
<path d="M0 0 C0.99 0.495 0.99 0.495 2 1 C2 1.66 2 2.32 2 3 C2.66 3 3.32 3 4 3 C4 3.66 4 4.32 4 5 C6.85537913 5.95179304 8.60438384 6.11694573 11.5625 6.09765625 C12.44164062 6.09443359 13.32078125 6.09121094 14.2265625 6.08789062 C15.59941406 6.07532227 15.59941406 6.07532227 17 6.0625 C18.37285156 6.05573242 18.37285156 6.05573242 19.7734375 6.04882812 C21.47266939 6.04010773 23.17189285 6.02933592 24.87109375 6.01586914 C26.58068985 6.00312559 28.2903564 6 30 6 C28.27599535 8.16311438 27.42444206 8.93875073 24.63989258 9.34057617 C23.73392334 9.32486572 22.8279541 9.30915527 21.89453125 9.29296875 C20.91162109 9.28330078 19.92871094 9.27363281 18.91601562 9.26367188 C17.89185547 9.23853516 16.86769531 9.21339844 15.8125 9.1875 C14.77673828 9.17396484 13.74097656 9.16042969 12.67382812 9.14648438 C10.11536301 9.11111389 7.5579422 9.06175544 5 9 C4.34 7.68 3.68 6.36 3 5 C2.34 5 1.68 5 1 5 C0.67 3.35 0.34 1.7 0 0 Z " fill="#602133" transform="translate(232,230)"/>
<path d="M0 0 C1 3 1 3 -0.4375 6.1875 C-1.2109375 7.5796875 -1.2109375 7.5796875 -2 9 C-1.45859375 8.68289063 -0.9171875 8.36578125 -0.359375 8.0390625 C2.4157149 6.81692026 4.73208098 6.59056564 7.75 6.375 C8.73484375 6.30023438 9.7196875 6.22546875 10.734375 6.1484375 C11.48203125 6.09945313 12.2296875 6.05046875 13 6 C11.68000515 8.63998971 10.63086688 8.70014976 7.875 9.625 C3.72529737 10.94626532 0.32795771 11.27625262 -4 11 C-4.65234375 9.234375 -4.65234375 9.234375 -5 7 C-4.00390625 5.078125 -4.00390625 5.078125 -2.5625 3.25 C-2.08941406 2.63640625 -1.61632812 2.0228125 -1.12890625 1.390625 C-0.75636719 0.93171875 -0.38382813 0.4728125 0 0 Z " fill="#8B4E66" transform="translate(210,289)"/>
<path d="M0 0 C0.6875 1.80859375 0.6875 1.80859375 1 4 C-0.25 5.53515625 -0.25 5.53515625 -2 7.0625 C-4.23820017 9.43994304 -4.96710955 10.48876797 -5.1796875 13.79296875 C-4.89475113 16.55831275 -4.47946216 19.26270695 -4 22 C-4 24.83967231 -4.40267181 27.23735711 -5 30 C-5.66 30 -6.32 30 -7 30 C-6.67 25.05 -6.34 20.1 -6 15 C-6.66 15 -7.32 15 -8 15 C-8.375 12.9375 -8.375 12.9375 -8 10 C-6.63012333 8.06779742 -5.12622254 6.37630522 -3.5078125 4.6484375 C-1.80095128 2.86639241 -1.80095128 2.86639241 0 0 Z " fill="#E37F9E" transform="translate(267,230)"/>
<path d="M0 0 C1.09658936 3.28976808 0.79953138 4.71303767 0 8 C-2.97 8 -5.94 8 -9 8 C-9 9.65 -9 11.3 -9 13 C-10.32 11.68 -11.64 10.36 -13 9 C-12.2890625 7.046875 -12.2890625 7.046875 -11 5 C-8.8359375 4.390625 -8.8359375 4.390625 -6.375 4.25 C-5.55773437 4.19328125 -4.74046875 4.1365625 -3.8984375 4.078125 C-3.27195312 4.05234375 -2.64546875 4.0265625 -2 4 C-2 3.01 -2 2.02 -2 1 C-1.34 0.67 -0.68 0.34 0 0 Z " fill="#A83F5A" transform="translate(291,267)"/>
<path d="M0 0 C0.90105469 0.01804688 1.80210937 0.03609375 2.73046875 0.0546875 C3.41753906 0.07789063 4.10460937 0.10109375 4.8125 0.125 C4.8125 0.785 4.8125 1.445 4.8125 2.125 C6.7925 1.795 8.7725 1.465 10.8125 1.125 C10.8125 2.115 10.8125 3.105 10.8125 4.125 C9.8225 4.125 8.8325 4.125 7.8125 4.125 C7.83570313 4.72828125 7.85890625 5.3315625 7.8828125 5.953125 C7.90988281 7.15195313 7.90988281 7.15195313 7.9375 8.375 C7.96070313 9.16390625 7.98390625 9.9528125 8.0078125 10.765625 C7.8125 13.125 7.8125 13.125 5.8125 17.125 C5.8125 14.155 5.8125 11.185 5.8125 8.125 C4.8225 7.795 3.8325 7.465 2.8125 7.125 C2.9775 6.50625 3.1425 5.8875 3.3125 5.25 C3.88884644 3.16436614 3.88884644 3.16436614 3.8125 1.125 C-2.1275 1.62 -2.1275 1.62 -8.1875 2.125 C-4.87379 -0.08414 -3.8428979 -0.09981553 0 0 Z " fill="#D15F84" transform="translate(248.1875,238.875)"/>
<path d="M0 0 C1.175625 0.02030273 1.175625 0.02030273 2.375 0.04101562 C4.29196782 0.07608211 6.20857751 0.12987928 8.125 0.1875 C8.125 0.5175 8.125 0.8475 8.125 1.1875 C3.175 1.1875 -1.775 1.1875 -6.875 1.1875 C-6.875 1.8475 -6.875 2.5075 -6.875 3.1875 C-7.5040625 3.42984375 -8.133125 3.6721875 -8.78125 3.921875 C-13.06324943 5.59856152 -17.20347446 7.30876825 -21.25 9.5 C-24.94875628 11.22183482 -25.33358043 11.39657496 -28.875 10.1875 C-18.5234375 5.01171875 -18.5234375 5.01171875 -16.64794922 4.09057617 C-15.05482557 3.27909664 -13.50766031 2.37885825 -11.96875 1.46875 C-7.8677568 -0.22964112 -4.38384864 -0.14488991 0 0 Z " fill="#B63154" transform="translate(243.875,260.8125)"/>
<path d="M0 0 C4.4893265 8.31773676 1.98543259 19.15418871 0 28 C-0.99 28.33 -1.98 28.66 -3 29 C-2.125 22.125 -2.125 22.125 -1 21 C-0.84313751 19.44051458 -0.74923361 17.87457332 -0.68359375 16.30859375 C-0.64169922 15.36435547 -0.59980469 14.42011719 -0.55664062 13.44726562 C-0.49766602 11.95743164 -0.49766602 11.95743164 -0.4375 10.4375 C-0.39431641 9.44041016 -0.35113281 8.44332031 -0.30664062 7.41601562 C-0.20019702 4.9441585 -0.09818072 2.4721969 0 0 Z " fill="#AF4266" transform="translate(293,239)"/>
<path d="M0 0 C0.3125 2.3125 0.3125 2.3125 0 5 C-2.3125 6.875 -2.3125 6.875 -5 8 C-5.99 7.67 -6.98 7.34 -8 7 C-7.625 4.0625 -7.625 4.0625 -7 1 C-4.53721199 -0.231394 -2.7204945 -0.07159196 0 0 Z " fill="#F377A1" transform="translate(266,294)"/>
<path d="M0 0 C2.97 0 5.94 0 9 0 C8.91231752 1.5843317 8.80412671 3.16753567 8.6875 4.75 C8.62949219 5.63171875 8.57148438 6.5134375 8.51171875 7.421875 C8 10 8 10 5 14 C5 9.71 5 5.42 5 1 C3.02 1.33 1.04 1.66 -1 2 C-0.67 1.34 -0.34 0.68 0 0 Z " fill="#651626" transform="translate(254,265)"/>
<path d="M0 0 C1.67542976 0.28604898 3.34385343 0.61781233 5 1 C3.52779875 3.9444025 1.99795835 4.66048669 -1 6 C-3.87605191 6.05416294 -6.14491038 5.61860275 -9 5 C-9.33 4.34 -9.66 3.68 -10 3 C-9.04287109 2.80083984 -9.04287109 2.80083984 -8.06640625 2.59765625 C-7.24011719 2.42105469 -6.41382813 2.24445313 -5.5625 2.0625 C-4.73878906 1.88847656 -3.91507813 1.71445312 -3.06640625 1.53515625 C-1.02338796 1.19247006 -1.02338796 1.19247006 0 0 Z " fill="#822D3F" transform="translate(253,262)"/>
<path d="M0 0 C2.875 -0.125 2.875 -0.125 6 0 C8.77042109 2.77042109 8.39796106 4.76533805 8.625 8.625 C8.69976562 9.81351563 8.77453125 11.00203125 8.8515625 12.2265625 C8.92503906 13.59941406 8.92503906 13.59941406 9 15 C8.34 15 7.68 15 7 15 C6.82984375 14.08476562 6.6596875 13.16953125 6.484375 12.2265625 C6.24203125 11.03804687 5.9996875 9.84953125 5.75 8.625 C5.51796875 7.44164062 5.2859375 6.25828125 5.046875 5.0390625 C4.30713529 1.89813187 4.30713529 1.89813187 1.890625 0.5859375 C1.26671875 0.39257812 0.6428125 0.19921875 0 0 Z " fill="#E9608F" transform="translate(280,221)"/>
<path d="M0 0 C0 1.32 0 2.64 0 4 C-0.66 4 -1.32 4 -2 4 C-2 3.34 -2 2.68 -2 2 C-7.54900904 4.18167824 -7.54900904 4.18167824 -12 8 C-14.5625 9.75 -14.5625 9.75 -17 11 C-17.66 10.67 -18.32 10.34 -19 10 C-16.71973999 6.57960999 -16.6132423 6.87593753 -13 6 C-11.9805881 5.01979625 -10.97753644 4.02196992 -10 3 C-9.34 3 -8.68 3 -8 3 C-8 2.34 -8 1.68 -8 1 C-5.10765685 0.17361624 -3.11257569 0 0 0 Z " fill="#C14066" transform="translate(236,269)"/>
<path d="M0 0 C0 4.24321666 -1.19698128 6.89956693 -3.6875 10.3125 C-6.84986753 12.6201736 -9.18293036 12.29362074 -13 12 C-12.67 11.34 -12.34 10.68 -12 10 C-10.35 10.33 -8.7 10.66 -7 11 C-6.89816406 10.41734375 -6.79632813 9.8346875 -6.69140625 9.234375 C-5.88482847 6.62780725 -4.75842991 5.26464586 -2.9375 3.25 C-2.38964844 2.63640625 -1.84179688 2.0228125 -1.27734375 1.390625 C-0.85582031 0.93171875 -0.43429687 0.4728125 0 0 Z " fill="#F974A0" transform="translate(287,256)"/>
<path d="M0 0 C0.53625 0.2475 1.0725 0.495 1.625 0.75 C-2.88674935 4.63511749 -2.88674935 4.63511749 -5.5 5.25 C-8.15179584 5.95714556 -8.9284639 7.50786904 -10.375 9.75 C-11.365 9.42 -12.355 9.09 -13.375 8.75 C-4.64893617 -0.4893617 -4.64893617 -0.4893617 0 0 Z " fill="#E0618B" transform="translate(228.375,274.25)"/>
<path d="M0 0 C1 3 1 3 -0.4375 6.1875 C-1.2109375 7.5796875 -1.2109375 7.5796875 -2 9 C-2.66 9 -3.32 9 -4 9 C-4.33 9.66 -4.66 10.32 -5 11 C-5.44041451 5.62694301 -5.44041451 5.62694301 -5 3 C-2.5 1 -2.5 1 0 0 Z " fill="#CC557F" transform="translate(265,281)"/>
<path d="M0 0 C1.03930664 0.07831055 1.03930664 0.07831055 2.09960938 0.15820312 C3.79604437 0.28689819 5.49184863 0.42386184 7.1875 0.5625 C7.1875 0.8925 7.1875 1.2225 7.1875 1.5625 C6.02992188 1.61148437 4.87234375 1.66046875 3.6796875 1.7109375 C2.1406033 1.78601478 0.6015419 1.86156043 -0.9375 1.9375 C-2.07832031 1.98390625 -2.07832031 1.98390625 -3.2421875 2.03125 C-7.75882158 2.264869 -11.55402347 2.88904117 -15.8125 4.5625 C-15.8125 3.9025 -15.8125 3.2425 -15.8125 2.5625 C-14.8225 2.5625 -13.8325 2.5625 -12.8125 2.5625 C-12.8125 1.9025 -12.8125 1.2425 -12.8125 0.5625 C-8.46757229 -0.57646163 -4.42629215 -0.36850471 0 0 Z " fill="#D24A70" transform="translate(244.8125,259.4375)"/>
<path d="M0 0 C0 0.66 0 1.32 0 2 C-0.61875 2.0825 -1.2375 2.165 -1.875 2.25 C-4.16352629 2.79948083 -4.16352629 2.79948083 -5.125 4.9375 C-5.41375 5.618125 -5.7025 6.29875 -6 7 C-6.66 7.66 -7.32 8.32 -8 9 C-8.25 6.1875 -8.25 6.1875 -8 3 C-5.22094435 0.02244037 -4.2016934 0 0 0 Z " fill="#A21E3E" transform="translate(226,269)"/>
<path d="M0 0 C0.33 1.32 0.66 2.64 1 4 C0.34 3.67 -0.32 3.34 -1 3 C-4 2.75 -4 2.75 -7 3 C-7.66 3.66 -8.32 4.32 -9 5 C-11.125 4.625 -11.125 4.625 -13 4 C-8.48649253 0.47726246 -5.71658336 -0.45732667 0 0 Z " fill="#AC5F77" transform="translate(287,219)"/>
<path d="M0 0 C0.99 0 1.98 0 3 0 C3.16873478 1.43725871 3.33490737 2.87481838 3.5 4.3125 C3.5928125 5.11300781 3.685625 5.91351563 3.78125 6.73828125 C4.13292008 10.37429868 3.76770989 13.44934178 3 17 C2.34 17 1.68 17 1 17 C1.33 12.05 1.66 7.1 2 2 C1.34 2 0.68 2 0 2 C0 1.34 0 0.68 0 0 Z " fill="#ED6893" transform="translate(259,243)"/>
<path d="M0 0 C3.96 0 7.92 0 12 0 C12 0.66 12 1.32 12 2 C9.03 2 6.06 2 3 2 C3 3.65 3 5.3 3 7 C1.68 5.68 0.36 4.36 -1 3 C-0.67 2.01 -0.34 1.02 0 0 Z " fill="#91344B" transform="translate(279,273)"/>
<path d="M0 0 C-3 2 -3 2 -7 2 C-7 2.66 -7 3.32 -7 4 C-7.639375 4.103125 -8.27875 4.20625 -8.9375 4.3125 C-9.618125 4.539375 -10.29875 4.76625 -11 5 C-11.33 5.99 -11.66 6.98 -12 8 C-12.99 7.67 -13.98 7.34 -15 7 C-13.1875 5 -13.1875 5 -11 3 C-10.01 3 -9.02 3 -8 3 C-8 2.34 -8 1.68 -8 1 C-5.07175348 0.02391783 -3.04386724 -0.08226668 0 0 Z " fill="#B52C51" transform="translate(235,268)"/>
<path d="M0 0 C0.99 0 1.98 0 3 0 C3.68359375 1.765625 3.68359375 1.765625 4 4 C2.78515625 5.921875 2.78515625 5.921875 1.0625 7.75 C0.49660156 8.36359375 -0.06929687 8.9771875 -0.65234375 9.609375 C-1.31943359 10.29773438 -1.31943359 10.29773438 -2 11 C-2.33 10.34 -2.66 9.68 -3 9 C-2.07536011 7.11515715 -0.94873655 5.42040675 0.1875 3.65625 C0.455625 3.1096875 0.72375 2.563125 1 2 C0.67 1.34 0.34 0.68 0 0 Z " fill="#F876A3" transform="translate(213,223)"/>
<path d="M0 0 C2.99559666 0.59911933 4.00690049 1.15503398 5.8125 3.5625 C4.78125 3.294375 3.75 3.02625 2.6875 2.75 C-1.37199759 2.5535727 -1.76288732 2.56822884 -4.625 5 C-5.470625 5.845625 -6.31625 6.69125 -7.1875 7.5625 C-7.8475 7.2325 -8.5075 6.9025 -9.1875 6.5625 C-4.07445652 0.71902174 -4.07445652 0.71902174 0 0 Z " fill="#5F2538" transform="translate(273.1875,295.4375)"/>
<path d="M0 0 C0.99 0 1.98 0 3 0 C3.25 7.5 3.25 7.5 1 12 C1 9.03 1 6.06 1 3 C0.01 2.67 -0.98 2.34 -2 2 C-1.34 1.34 -0.68 0.68 0 0 Z " fill="#E55787" transform="translate(253,244)"/>
<path d="M0 0 C0.66 0 1.32 0 2 0 C2.66 0.99 3.32 1.98 4 3 C7.06556598 3.73343428 7.06556598 3.73343428 10 4 C8.3125 5.625 8.3125 5.625 6 7 C3.3125 6.5 3.3125 6.5 1 5 C0.1875 2.375 0.1875 2.375 0 0 Z " fill="#B5496B" transform="translate(233,235)"/>
<path d="M0 0 C0.6875 1.8125 0.6875 1.8125 1 4 C-0.25 5.75 -0.25 5.75 -2 7 C-2.99 7 -3.98 7 -5 7 C-5.33 6.01 -5.66 5.02 -6 4 C-4.68 4 -3.36 4 -2 4 C-1.34 2.68 -0.68 1.36 0 0 Z " fill="#F0679A" transform="translate(239,243)"/>
<path d="M0 0 C0.66 0 1.32 0 2 0 C1.67 1.98 1.34 3.96 1 6 C0.34 6 -0.32 6 -1 6 C-1 7.98 -1 9.96 -1 12 C-1.33 12 -1.66 12 -2 12 C-2.05422947 10.5629191 -2.09289723 9.12524538 -2.125 7.6875 C-2.14820313 6.88699219 -2.17140625 6.08648437 -2.1953125 5.26171875 C-2 3 -2 3 0 0 Z " fill="#905166" transform="translate(205,222)"/>
<path d="M0 0 C2.72647685 2.35468455 3.98756342 4.5408417 5 8 C4.625 10.3125 4.625 10.3125 4 12 C1.8480563 8.77208445 1.79913557 7.71599191 2 4 C1.34 4 0.68 4 0 4 C0 2.68 0 1.36 0 0 Z " fill="#E37399" transform="translate(234,276)"/>
<path d="M0 0 C0.99 0.495 0.99 0.495 2 1 C3.1577506 4.47325181 3.06866652 7.36067448 3 11 C0.60236815 8.60236815 0.65719414 7.66726502 0.375 4.375 C0.30023438 3.55773437 0.22546875 2.74046875 0.1484375 1.8984375 C0.09945312 1.27195312 0.05046875 0.64546875 0 0 Z " fill="#B04D6A" transform="translate(236,273)"/>
<path d="M0 0 C0 0.66 0 1.32 0 2 C0.99 2.33 1.98 2.66 3 3 C-0.3 3 -3.6 3 -7 3 C-7.33 2.34 -7.66 1.68 -8 1 C-2.25 0 -2.25 0 0 0 Z " fill="#8F364B" transform="translate(214,272)"/>
<path d="M0 0 C0.66 0 1.32 0 2 0 C2 0.66 2 1.32 2 2 C3.32 2 4.64 2 6 2 C6 2.66 6 3.32 6 4 C3.69 4.66 1.38 5.32 -1 6 C-0.67 4.02 -0.34 2.04 0 0 Z " fill="#A41F3F" transform="translate(265,264)"/>
<path d="M0 0 C2.475 0.99 2.475 0.99 5 2 C5 3.65 5 5.3 5 7 C4.67 6.01 4.34 5.02 4 4 C2.02 4 0.04 4 -2 4 C-1.34 2.68 -0.68 1.36 0 0 Z " fill="#C6587C" transform="translate(223,225)"/>
<path d="M0 0 C0.33 0 0.66 0 1 0 C1 1.98 1 3.96 1 6 C-4.53846154 6.36923077 -4.53846154 6.36923077 -6.875 4.5 C-7.24625 4.005 -7.6175 3.51 -8 3 C-5.23723823 3.52268466 -2.6739124 4.10869587 0 5 C0 3.35 0 1.7 0 0 Z " fill="#814F5D" transform="translate(242,296)"/>
<path d="M0 0 C6.4 -0.49230769 6.4 -0.49230769 9.4375 2 C10.2109375 2.99 10.2109375 2.99 11 4 C8 4 8 4 5 2 C3.34450469 1.61500109 1.6777567 1.27206865 0 1 C0 0.67 0 0.34 0 0 Z " fill="#80415F" transform="translate(223,294)"/>
<path d="M0 0 C1.5625 1.1875 1.5625 1.1875 3 3 C2.6875 5.6875 2.6875 5.6875 2 8 C2.66 8.33 3.32 8.66 4 9 C2.68 8.67 1.36 8.34 0 8 C0 5.36 0 2.72 0 0 Z " fill="#EF6C9A" transform="translate(270,285)"/>
<path d="M0 0 C0.33 0.99 0.66 1.98 1 3 C1.99 3 2.98 3 4 3 C4 2.34 4 1.68 4 1 C5.32 1.33 6.64 1.66 8 2 C5.6875 3.5625 5.6875 3.5625 3 5 C2.01 4.67 1.02 4.34 0 4 C0 2.68 0 1.36 0 0 Z " fill="#DD789A" transform="translate(258,297)"/>
<path d="M0 0 C0.66 0 1.32 0 2 0 C2 0.99 2 1.98 2 3 C2.66 3 3.32 3 4 3 C4 3.99 4 4.98 4 6 C2.68 6 1.36 6 0 6 C0 4.02 0 2.04 0 0 Z " fill="#F893BB" transform="translate(212,290)"/>
<path d="M0 0 C1.32 1.65 2.64 3.3 4 5 C3.34 6.32 2.68 7.64 2 9 C-0.29013653 5.5647952 -0.17842973 4.014669 0 0 Z " fill="#F581AC" transform="translate(235,283)"/>
<path d="M0 0 C0.99 0 1.98 0 3 0 C3.1875 2.375 3.1875 2.375 3 5 C2.01 5.66 1.02 6.32 0 7 C0 4.69 0 2.38 0 0 Z " fill="#FB9BC0" transform="translate(207,224)"/>
<path d="M0 0 C0.99 0 1.98 0 3 0 C2.41321669 3.52069985 1.64350079 5.71299843 0 9 C0 6.03 0 3.06 0 0 Z " fill="#8E3954" transform="translate(259,279)"/>
</svg>
